<svg width="30" height="30" viewBox="0 0 30 30" fill="none" xmlns="http://www.w3.org/2000/svg">
<path d="M26.3968 19.0524C22.2925 20.8932 17.4701 19.0434 15.6534 14.9208C13.8801 10.8969 15.668 6.14889 19.6555 4.29528C20.447 3.92737 21.2664 3.69827 22.0869 3.59743C22.5922 3.53532 22.6511 2.82411 22.1622 2.68249C19.7034 1.97028 16.9895 2.09133 14.4701 3.21745C8.79498 5.75426 6.27018 12.3578 8.80606 18.0333C11.3362 23.6961 17.9801 26.2298 23.6374 23.6926C26.1615 22.5605 28.0621 20.6104 29.1672 18.2952C29.3852 17.8382 28.8148 17.4097 28.4346 17.744C27.8398 18.2671 27.1576 18.7112 26.3968 19.0524Z" fill="#FFE02F"/>
<path d="M20.0053 24.6361C19.8748 23.2322 19.1468 21.978 18.0226 21.1713C17.9565 19.4111 16.529 17.9934 14.765 17.943C14.1326 16.9596 13.2633 16.1508 12.2368 15.5909C11.2104 15.031 10.0598 14.7379 8.89056 14.7385C8.55746 14.7385 8.22986 14.7623 7.90906 14.8076C8.04177 15.9 8.33867 16.9913 8.81263 18.0481C10.8171 22.5174 15.3863 25.032 20.0053 24.6361Z" fill="#F9C301"/>
<path d="M16.4417 21.9624C16.5211 21.7502 16.5617 21.5255 16.5615 21.2989C16.5615 20.2529 15.7135 19.4049 14.6675 19.4049C14.4184 19.4049 14.1808 19.4535 13.963 19.5409C13.1172 17.577 11.1646 16.2019 8.89055 16.2019C5.84156 16.2019 3.36984 18.6736 3.36984 21.7226C1.50873 21.7226 0 23.2313 0 25.0925C0 26.9536 1.50873 28.4624 3.3699 28.4624H15.1934C17.0545 28.4624 18.5633 26.9536 18.5633 25.0925C18.5632 23.6725 17.6846 22.4586 16.4417 21.9624Z" fill="#EFF3F5"/>
<path d="M16.4417 21.9624C16.5211 21.7502 16.5617 21.5255 16.5615 21.2989C16.5615 20.2529 15.7135 19.4049 14.6675 19.4049C14.4184 19.4049 14.1808 19.4535 13.963 19.5409C13.1172 17.577 11.1646 16.2019 8.89055 16.2019C5.84156 16.2019 3.36984 18.6736 3.36984 21.7226C1.50873 21.7226 0 23.2313 0 25.0925C0 26.9536 1.50873 28.4624 3.3699 28.4624H15.1934C17.0545 28.4624 18.5633 26.9536 18.5633 25.0925C18.5632 23.6725 17.6846 22.4586 16.4417 21.9624Z" fill="#A0CAFE"/>
<path d="M16.4417 21.9625C16.5211 21.7503 16.5617 21.5256 16.5615 21.299C16.5615 20.253 15.7135 19.405 14.6675 19.405C14.5509 19.405 14.437 19.416 14.3264 19.4363C14.45 19.9961 14.5123 20.5677 14.5122 21.141C14.5122 24.4682 12.4464 27.3128 9.5274 28.4624H15.1933C17.0544 28.4624 18.5632 26.9537 18.5632 25.0925C18.5632 23.6726 17.6846 22.4587 16.4417 21.9625Z" fill="#81B8FD"/>
<path d="M28.5784 10.4279C28.6316 10.2857 28.6588 10.1351 28.6587 9.9833C28.6587 9.2824 28.0905 8.71416 27.3895 8.71416C27.2227 8.71416 27.0635 8.74668 26.9175 8.80527C26.3507 7.48932 25.0422 6.56787 23.5184 6.56787C21.4753 6.56787 19.8191 8.22414 19.8191 10.2672C18.5719 10.2672 17.5609 11.2782 17.5609 12.5254C17.5609 13.7725 18.5719 14.7835 19.8191 14.7835H27.7418C28.9889 14.7835 30 13.7726 30 12.5254C30 11.5738 29.4113 10.7604 28.5784 10.4279Z" fill="#EFF3F5"/>
<path d="M28.5784 10.4279C28.6316 10.2857 28.6588 10.1351 28.6587 9.9833C28.6587 9.2824 28.0905 8.71416 27.3895 8.71416C27.2227 8.71416 27.0635 8.74668 26.9175 8.80527C26.3507 7.48932 25.0422 6.56787 23.5184 6.56787C21.4753 6.56787 19.8191 8.22414 19.8191 10.2672C18.5719 10.2672 17.5609 11.2782 17.5609 12.5254C17.5609 13.7725 18.5719 14.7835 19.8191 14.7835H27.7418C28.9889 14.7835 30 13.7726 30 12.5254C30 11.5738 29.4113 10.7604 28.5784 10.4279Z" fill="#A0CAFE"/>
<path d="M28.5784 10.4279C28.6316 10.2857 28.6588 10.1351 28.6586 9.98325C28.6586 9.28235 28.0905 8.71411 27.3895 8.71411C27.3114 8.71411 27.2351 8.72149 27.1609 8.73509C27.2437 9.1102 27.2855 9.49322 27.2854 9.87737C27.2854 12.1069 25.9011 14.0131 23.9452 14.7834H27.7418C28.9889 14.7834 30 13.7724 30 12.5252C30 11.5738 29.4112 10.7603 28.5784 10.4279Z" fill="#81B8FD"/>
<path d="M2.54402 8.06246L2.8357 8.65343C2.86092 8.70455 2.8982 8.74876 2.94432 8.78227C2.99044 8.81577 3.04401 8.83755 3.10042 8.84574L3.75257 8.94048C4.04091 8.98238 4.15605 9.33675 3.9474 9.54013L3.47548 10.0002C3.43467 10.0399 3.40414 10.0891 3.38652 10.1433C3.3689 10.1975 3.36473 10.2552 3.37435 10.3113L3.48574 10.9609C3.53501 11.248 3.23355 11.467 2.97562 11.3315L2.39232 11.0248C2.34187 10.9983 2.28572 10.9844 2.22872 10.9844C2.17173 10.9844 2.11558 10.9983 2.06513 11.0248L1.48183 11.3315C1.2239 11.467 0.922494 11.248 0.971713 10.9609L1.0831 10.3113C1.09274 10.2552 1.08857 10.1975 1.07095 10.1433C1.05333 10.089 1.02279 10.0399 0.981967 10.0002L0.510053 9.54013C0.3014 9.33675 0.416537 8.98238 0.704877 8.94048L1.35703 8.84574C1.41344 8.83755 1.46701 8.81576 1.51312 8.78226C1.55924 8.74876 1.59652 8.70455 1.62175 8.65343L1.91343 8.06246C2.04246 7.80119 2.41505 7.80119 2.54402 8.06246ZM26.5621 25.1966L26.7745 25.627C26.7998 25.6781 26.837 25.7223 26.8831 25.7558C26.9293 25.7893 26.9828 25.8111 27.0393 25.8193L27.5142 25.8883C27.8026 25.9302 27.9177 26.2846 27.709 26.488L27.3653 26.823C27.3245 26.8628 27.294 26.9119 27.2764 26.9661C27.2587 27.0203 27.2546 27.078 27.2642 27.1342L27.3453 27.6072C27.3946 27.8944 27.0932 28.1134 26.8352 27.9778L26.4104 27.7545C26.36 27.7279 26.3038 27.7141 26.2468 27.7141C26.1898 27.7141 26.1337 27.7279 26.0832 27.7545L25.6584 27.9778C25.4005 28.1134 25.0991 27.8944 25.1483 27.6072L25.2295 27.1342C25.2391 27.078 25.2349 27.0203 25.2173 26.9661C25.1997 26.9119 25.1692 26.8628 25.1283 26.823L24.7846 26.488C24.576 26.2846 24.6911 25.9302 24.9794 25.8883L25.4544 25.8193C25.5108 25.8111 25.5644 25.7893 25.6105 25.7558C25.6566 25.7223 25.6939 25.6781 25.7191 25.627L25.9315 25.1966C26.0606 24.9353 26.4332 24.9353 26.5621 25.1966ZM7.74287 1.668L7.99705 2.18298C8.01386 2.21706 8.03871 2.24654 8.06946 2.26887C8.1002 2.29121 8.13592 2.30573 8.17353 2.31119L8.74183 2.39375C8.93408 2.42169 9.01083 2.65794 8.87173 2.79353L8.46052 3.19437C8.4333 3.22089 8.41294 3.25364 8.40121 3.28979C8.38947 3.32593 8.3867 3.3644 8.39314 3.40185L8.49023 3.96787C8.52304 4.15935 8.32212 4.30531 8.15015 4.21496L7.64185 3.94771C7.60822 3.93001 7.57078 3.92077 7.53278 3.92077C7.49477 3.92077 7.45734 3.93001 7.4237 3.94771L6.9154 4.21496C6.74343 4.30537 6.54251 4.15935 6.57533 3.96787L6.67242 3.40185C6.67884 3.3644 6.67607 3.32594 6.66433 3.2898C6.65259 3.25365 6.63224 3.2209 6.60503 3.19437L6.19382 2.79353C6.05472 2.65794 6.13148 2.42169 6.32372 2.39375L6.89203 2.31119C6.92963 2.30572 6.96534 2.2912 6.99609 2.26886C7.02683 2.24653 7.05169 2.21706 7.06851 2.18298L7.32269 1.668C7.40853 1.4938 7.65691 1.4938 7.74287 1.668Z" fill="#FFE02F"/>
</svg>
