<svg width="30" height="30" viewBox="0 0 30 30" fill="none" xmlns="http://www.w3.org/2000/svg">
<g clip-path="url(#clip0_119_15)">
<path d="M5.55383 16.2427C5.55383 11.0362 9.77493 6.81519 14.9817 6.81519C20.1883 6.81519 24.4094 11.0362 24.4094 16.2428V21.1354H5.55389L5.55383 16.2427Z" fill="#FDC202"/>
<path d="M16.0531 6.87516C11.3507 7.40707 7.69657 11.3986 7.69657 16.2428V21.1356H5.5538V16.2428C5.5538 11.0361 9.77489 6.8151 14.9816 6.8151C15.344 6.8151 15.7015 6.83531 16.0531 6.87516ZM14.9817 0.46875C14.9214 0.468742 14.8617 0.480613 14.806 0.503684C14.7503 0.526756 14.6997 0.560575 14.657 0.603212C14.6144 0.645849 14.5806 0.696467 14.5575 0.752176C14.5344 0.807885 14.5226 0.867593 14.5226 0.927891V3.0501C14.5226 3.30369 14.7281 3.50947 14.9816 3.50947C15.2352 3.50947 15.4408 3.30369 15.4408 3.0501V0.927832C15.4408 0.86754 15.4289 0.807838 15.4058 0.752135C15.3828 0.696433 15.3489 0.645822 15.3063 0.603191C15.2637 0.560561 15.2131 0.526746 15.1574 0.503679C15.1016 0.480611 15.0419 0.468742 14.9816 0.46875H14.9817ZM9.53794 2.26453C9.49629 2.1501 9.41089 2.0569 9.30053 2.00544C9.19017 1.95398 9.06388 1.94846 8.94945 1.99011C8.83502 2.03175 8.74183 2.11715 8.69036 2.22752C8.6389 2.33788 8.63338 2.46416 8.67503 2.57859L9.40083 4.57307C9.48755 4.81131 9.75122 4.934 9.98929 4.84746C10.1037 4.80577 10.1969 4.72034 10.2484 4.60996C10.2998 4.49958 10.3054 4.37328 10.2637 4.25883L9.53794 2.26453ZM4.54147 5.49797C4.37829 5.30391 4.08872 5.27848 3.8946 5.44143C3.7003 5.60437 3.67487 5.89418 3.83788 6.0883L5.202 7.71398C5.24508 7.76545 5.29893 7.80683 5.35977 7.83519C5.4206 7.86355 5.48691 7.8782 5.55403 7.87811C5.9404 7.87811 6.15714 7.42354 5.90559 7.12371L4.54147 5.49797ZM3.09034 11.1664L1.25243 10.1053C1.0327 9.97857 0.751864 10.0539 0.625301 10.2734C0.595133 10.3256 0.575547 10.3832 0.567662 10.443C0.559777 10.5028 0.563748 10.5636 0.579348 10.6218C0.594947 10.6801 0.62187 10.7347 0.658578 10.7826C0.695287 10.8304 0.741062 10.8706 0.79329 10.9007L2.6312 11.9619C2.68343 11.992 2.74108 12.0115 2.80086 12.0194C2.86064 12.0272 2.92139 12.0232 2.97962 12.0076C3.03786 11.992 3.09245 11.965 3.14027 11.9283C3.18809 11.8916 3.22821 11.8458 3.25833 11.7936C3.3192 11.6881 3.3357 11.5628 3.30419 11.4452C3.27269 11.3276 3.19577 11.2273 3.09034 11.1664ZM21.0139 1.99014C20.9572 1.96952 20.897 1.96026 20.8368 1.96291C20.7765 1.96555 20.7174 1.98004 20.6628 2.00554C20.6081 2.03104 20.559 2.06706 20.5183 2.11154C20.4776 2.15602 20.446 2.20809 20.4254 2.26477L19.6994 4.259C19.6127 4.4973 19.7358 4.76074 19.9738 4.84746C20.0305 4.86811 20.0907 4.87739 20.1509 4.87477C20.2112 4.87215 20.2704 4.85769 20.325 4.83221C20.3797 4.80673 20.4288 4.77073 20.4696 4.72626C20.5103 4.6818 20.5419 4.62974 20.5625 4.57307L21.2883 2.57883C21.3299 2.46438 21.3244 2.33806 21.273 2.22766C21.2215 2.11726 21.1283 2.03183 21.0139 1.99014ZM26.0687 5.44143C25.9754 5.36319 25.8549 5.32519 25.7336 5.3358C25.6123 5.3464 25.5002 5.40473 25.4219 5.49797L24.0578 7.12371C23.8062 7.42354 24.0227 7.87811 24.4091 7.87811C24.4762 7.87821 24.5425 7.86357 24.6033 7.83522C24.6642 7.80687 24.718 7.7655 24.7611 7.71404L26.1252 6.08824C26.164 6.04206 26.1933 5.9887 26.2114 5.9312C26.2296 5.8737 26.2362 5.81319 26.2309 5.75312C26.2257 5.69306 26.2087 5.63462 26.1808 5.58114C26.153 5.52766 26.1149 5.48018 26.0687 5.44143ZM29.3381 10.2734C29.2772 10.1679 29.1769 10.091 29.0593 10.0595C28.9417 10.028 28.8164 10.0445 28.7109 10.1054L26.873 11.1665C26.8208 11.1966 26.775 11.2368 26.7383 11.2846C26.7016 11.3324 26.6747 11.387 26.6591 11.4452C26.6435 11.5035 26.6395 11.5642 26.6474 11.624C26.6553 11.6837 26.6749 11.7414 26.705 11.7936C26.8318 12.0135 27.1127 12.0884 27.3322 11.9618L29.1701 10.9007C29.2755 10.8398 29.3524 10.7395 29.3839 10.6218C29.4154 10.5042 29.3989 10.3788 29.3381 10.2734Z" fill="#F0A70A"/>
<path d="M26.2759 13.6288C24.7886 13.6171 23.5003 14.4706 22.8821 15.7157C22.8454 15.7892 22.7475 15.8009 22.693 15.7395C22.2579 15.2506 21.6243 14.9423 20.9185 14.9423C19.6067 14.9423 18.5434 16.0057 18.5434 17.3174C18.5434 17.4501 18.5546 17.5804 18.5758 17.707C18.5786 17.7234 18.5778 17.7402 18.5734 17.7562C18.5691 17.7723 18.5613 17.7872 18.5505 17.7999C18.5398 17.8126 18.5264 17.8228 18.5114 17.8298C18.4963 17.8368 18.4798 17.8404 18.4632 17.8404H15.0122C14.114 17.8404 13.3551 18.5447 13.3303 19.4424C13.3049 20.3737 14.0522 21.1367 14.9778 21.1367H26.2457C28.2983 21.1367 29.9662 19.4897 29.9993 17.4451C30.033 15.3719 28.3491 13.645 26.2759 13.6288Z" fill="#A0CAFE"/>
<path d="M30 17.3831C30 19.4559 28.3189 21.137 26.2454 21.137H14.978C14.0675 21.137 13.3298 20.3987 13.3298 19.4891C13.3298 19.2245 13.3923 18.9748 13.5031 18.7532C13.5784 18.7642 13.6562 18.7696 13.7345 18.7696H25.0021C27.0756 18.7696 28.7567 17.0892 28.7567 15.0155C28.7567 14.8645 28.7475 14.7151 28.7297 14.5681C29.5083 15.2557 30 16.2621 30 17.3831Z" fill="#81B8FD"/>
<path d="M3.35267 15.9903C4.8031 15.9225 6.07106 16.733 6.67235 17.9349C6.7081 18.0067 6.80489 18.0216 6.85845 17.9618C7.26626 17.506 7.85888 17.2187 8.51876 17.2187C9.74923 17.2187 10.7465 18.2162 10.7465 19.4467C10.7465 19.5687 10.7364 19.6884 10.7174 19.8051C10.7147 19.8214 10.7156 19.8381 10.72 19.854C10.7245 19.87 10.7323 19.8847 10.743 19.8973C10.7537 19.9099 10.7671 19.92 10.7821 19.9269C10.7971 19.9339 10.8135 19.9374 10.83 19.9374H20.4421C21.3089 19.9374 22.0393 20.6467 22.0227 21.5132C22.0069 22.3532 21.3208 23.0293 20.4772 23.0293H3.52159C1.52161 23.0293 -0.0890721 21.3619 0.004092 19.3411C0.0871779 17.5382 1.5498 16.0745 3.35267 15.9903Z" fill="#C0DBFF"/>
<path d="M22.023 21.4835C22.023 22.3375 21.3306 23.0294 20.4773 23.0294H3.52137C1.57699 23.0294 0 21.4529 0 19.508C0 17.6902 1.37742 16.1947 3.14484 16.0068C2.88903 16.5045 2.75593 17.0561 2.75666 17.6156C2.75666 19.56 4.33318 21.137 6.27803 21.137H21.9834C22.0097 21.2485 22.023 21.364 22.023 21.4835Z" fill="#A0CAFE"/>
<path d="M20.4264 19.9377C18.5037 19.9377 16.6661 20.853 15.9618 22.6035C15.9183 22.7115 15.7795 22.7445 15.6919 22.6678C13.7198 20.9439 10.5451 22.628 10.9685 25.2812C10.9855 25.3867 10.906 25.4826 10.7994 25.4826H8.63408C7.51441 25.4826 6.57668 26.3993 6.59795 27.5187C6.61881 28.6036 7.50481 29.4768 8.59477 29.4768H20.2696C26.537 29.4768 26.9408 19.9377 20.4264 19.9377Z" fill="#E6F1FF"/>
<path d="M24.1855 21.6145C23.5897 21.3593 22.8905 21.2135 22.0862 21.2135C20.1638 21.2135 18.3261 22.1288 17.6221 23.8798C17.5786 23.9873 17.4397 24.0205 17.352 23.9434C15.3802 22.2194 12.2047 23.9035 12.6283 26.5574C12.6455 26.6627 12.5659 26.7589 12.4594 26.7589H10.294C9.17427 26.7589 8.23654 27.6746 8.25787 28.7943C8.2622 29.0307 8.3082 29.2571 8.3883 29.4666C7.39543 29.3644 6.61789 28.5347 6.59826 27.5185C6.57693 26.3988 7.51419 25.4824 8.63439 25.4824H10.7991C10.9062 25.4824 10.9852 25.387 10.9687 25.281C10.5451 22.6278 13.7199 20.9437 15.6917 22.6676C15.7794 22.7447 15.9183 22.7115 15.9618 22.6039C16.6665 20.853 18.5035 19.9377 20.4266 19.9377C22.1659 19.9377 23.4121 20.618 24.1855 21.6145Z" fill="#D9E9FF"/>
</g>
<defs>
<clipPath id="clip0_119_15">
<rect width="30" height="30" fill="white"/>
</clipPath>
</defs>
</svg>
