<svg width="40" height="40" viewBox="0 0 40 40" fill="none" xmlns="http://www.w3.org/2000/svg">
<circle cx="20" cy="20" r="20" fill="#5B51DE"/>
<path fill-rule="evenodd" clip-rule="evenodd" d="M19.941 18.4444C26.1051 13.7954 26.3772 10.9778 19.941 6C13.382 11.084 14.2274 13.7788 19.941 18.4444ZM18.4444 20.059C13.7954 13.8949 10.9778 13.6228 6 20.059C11.084 26.618 13.7788 25.7726 18.4444 20.059ZM34 20.059C29.3509 13.8949 26.5333 13.6228 21.5556 20.059C26.6395 26.618 29.3343 25.7726 34 20.059ZM19.941 34C26.1051 29.3509 26.3772 26.5333 19.941 21.5556C13.382 26.6395 14.2274 29.3343 19.941 34Z" fill="white"/>
</svg>
